<mxfile host="Electron" modified="2024-06-15T00:48:18.383Z" agent="Mozilla/5.0 (Windows NT 10.0; Win64; x64) AppleWebKit/537.36 (KHTML, like Gecko) draw.io/24.5.1 Chrome/124.0.6367.207 Electron/30.0.6 Safari/537.36" etag="78WItLaFoliAjLXoFmkV" version="24.5.1" type="device">
  <diagram id="C5RBs43oDa-KdzZeNtuy" name="Page-1">
    <mxGraphModel dx="1050" dy="621" grid="1" gridSize="10" guides="1" tooltips="1" connect="1" arrows="1" fold="1" page="1" pageScale="1" pageWidth="827" pageHeight="1169" math="0" shadow="0">
      <root>
        <mxCell id="WIyWlLk6GJQsqaUBKTNV-0" />
        <mxCell id="WIyWlLk6GJQsqaUBKTNV-1" parent="WIyWlLk6GJQsqaUBKTNV-0" />
        <mxCell id="s3YrhpVgowpJ8DNU9XVm-4" value="Periferico" style="swimlane;fontStyle=1;align=center;verticalAlign=top;childLayout=stackLayout;horizontal=1;startSize=26;horizontalStack=0;resizeParent=1;resizeParentMax=0;resizeLast=0;collapsible=1;marginBottom=0;whiteSpace=wrap;html=1;" parent="WIyWlLk6GJQsqaUBKTNV-1" vertex="1">
          <mxGeometry x="414" y="71" width="180" height="184" as="geometry" />
        </mxCell>
        <mxCell id="s3YrhpVgowpJ8DNU9XVm-5" value="&lt;div&gt;&lt;span style=&quot;background-color: initial;&quot;&gt;- Marca: String&lt;/span&gt;&lt;/div&gt;&lt;div&gt;&lt;span style=&quot;background-color: initial;&quot;&gt;- Modelo: String&lt;/span&gt;&lt;/div&gt;&lt;div&gt;&lt;span style=&quot;background-color: initial;&quot;&gt;- AÃ±o: Int&lt;/span&gt;&lt;/div&gt;&lt;div&gt;&lt;div&gt;&lt;br&gt;&lt;/div&gt;&lt;/div&gt;" style="text;strokeColor=none;fillColor=none;align=left;verticalAlign=top;spacingLeft=4;spacingRight=4;overflow=hidden;rotatable=0;points=[[0,0.5],[1,0.5]];portConstraint=eastwest;whiteSpace=wrap;html=1;" parent="s3YrhpVgowpJ8DNU9XVm-4" vertex="1">
          <mxGeometry y="26" width="180" height="124" as="geometry" />
        </mxCell>
        <mxCell id="JFTafXgLY-GhWS5_NUtb-23" value="Extends" style="endArrow=block;endSize=16;endFill=0;html=1;rounded=0;exitX=0.435;exitY=-0.002;exitDx=0;exitDy=0;exitPerimeter=0;" edge="1" parent="s3YrhpVgowpJ8DNU9XVm-4" source="JFTafXgLY-GhWS5_NUtb-4">
          <mxGeometry width="160" relative="1" as="geometry">
            <mxPoint x="-144" y="91.5" as="sourcePoint" />
            <mxPoint x="-4" y="109" as="targetPoint" />
            <Array as="points">
              <mxPoint x="-4" y="109" />
            </Array>
          </mxGeometry>
        </mxCell>
        <mxCell id="s3YrhpVgowpJ8DNU9XVm-6" value="" style="line;strokeWidth=1;fillColor=none;align=left;verticalAlign=middle;spacingTop=-1;spacingLeft=3;spacingRight=3;rotatable=0;labelPosition=right;points=[];portConstraint=eastwest;strokeColor=inherit;" parent="s3YrhpVgowpJ8DNU9XVm-4" vertex="1">
          <mxGeometry y="150" width="180" height="8" as="geometry" />
        </mxCell>
        <mxCell id="s3YrhpVgowpJ8DNU9XVm-7" value="+ method(type): type" style="text;strokeColor=none;fillColor=none;align=left;verticalAlign=top;spacingLeft=4;spacingRight=4;overflow=hidden;rotatable=0;points=[[0,0.5],[1,0.5]];portConstraint=eastwest;whiteSpace=wrap;html=1;" parent="s3YrhpVgowpJ8DNU9XVm-4" vertex="1">
          <mxGeometry y="158" width="180" height="26" as="geometry" />
        </mxCell>
        <mxCell id="JFTafXgLY-GhWS5_NUtb-0" value="SistemaOperativo&lt;br&gt;&lt;div&gt;&lt;br&gt;&lt;/div&gt;" style="swimlane;fontStyle=1;align=center;verticalAlign=top;childLayout=stackLayout;horizontal=1;startSize=26;horizontalStack=0;resizeParent=1;resizeParentMax=0;resizeLast=0;collapsible=1;marginBottom=0;whiteSpace=wrap;html=1;" vertex="1" parent="WIyWlLk6GJQsqaUBKTNV-1">
          <mxGeometry x="350" y="750" width="180" height="88" as="geometry" />
        </mxCell>
        <mxCell id="JFTafXgLY-GhWS5_NUtb-2" value="" style="line;strokeWidth=1;fillColor=none;align=left;verticalAlign=middle;spacingTop=-1;spacingLeft=3;spacingRight=3;rotatable=0;labelPosition=right;points=[];portConstraint=eastwest;strokeColor=inherit;" vertex="1" parent="JFTafXgLY-GhWS5_NUtb-0">
          <mxGeometry y="26" width="180" height="8" as="geometry" />
        </mxCell>
        <mxCell id="JFTafXgLY-GhWS5_NUtb-3" value="&lt;div&gt;&lt;br&gt;&lt;/div&gt;" style="text;strokeColor=none;fillColor=none;align=left;verticalAlign=top;spacingLeft=4;spacingRight=4;overflow=hidden;rotatable=0;points=[[0,0.5],[1,0.5]];portConstraint=eastwest;whiteSpace=wrap;html=1;" vertex="1" parent="JFTafXgLY-GhWS5_NUtb-0">
          <mxGeometry y="34" width="180" height="54" as="geometry" />
        </mxCell>
        <mxCell id="JFTafXgLY-GhWS5_NUtb-4" value="&lt;div&gt;Celular&lt;/div&gt;" style="swimlane;fontStyle=1;align=center;verticalAlign=top;childLayout=stackLayout;horizontal=1;startSize=26;horizontalStack=0;resizeParent=1;resizeParentMax=0;resizeLast=0;collapsible=1;marginBottom=0;whiteSpace=wrap;html=1;" vertex="1" parent="WIyWlLk6GJQsqaUBKTNV-1">
          <mxGeometry x="90" y="410" width="250" height="188" as="geometry" />
        </mxCell>
        <mxCell id="JFTafXgLY-GhWS5_NUtb-5" value="+ SistemaOperativo: &amp;lt;SISTEMA&amp;nbsp;&lt;div&gt;- Memoria: String&lt;/div&gt;" style="text;strokeColor=none;fillColor=none;align=left;verticalAlign=top;spacingLeft=4;spacingRight=4;overflow=hidden;rotatable=0;points=[[0,0.5],[1,0.5]];portConstraint=eastwest;whiteSpace=wrap;html=1;" vertex="1" parent="JFTafXgLY-GhWS5_NUtb-4">
          <mxGeometry y="26" width="250" height="100" as="geometry" />
        </mxCell>
        <mxCell id="JFTafXgLY-GhWS5_NUtb-6" value="" style="line;strokeWidth=1;fillColor=none;align=left;verticalAlign=middle;spacingTop=-1;spacingLeft=3;spacingRight=3;rotatable=0;labelPosition=right;points=[];portConstraint=eastwest;strokeColor=inherit;" vertex="1" parent="JFTafXgLY-GhWS5_NUtb-4">
          <mxGeometry y="126" width="250" height="8" as="geometry" />
        </mxCell>
        <mxCell id="JFTafXgLY-GhWS5_NUtb-7" value="+ CargarFactura()&lt;div&gt;+ ListarFactura()&lt;br&gt;&lt;/div&gt;" style="text;strokeColor=none;fillColor=none;align=left;verticalAlign=top;spacingLeft=4;spacingRight=4;overflow=hidden;rotatable=0;points=[[0,0.5],[1,0.5]];portConstraint=eastwest;whiteSpace=wrap;html=1;" vertex="1" parent="JFTafXgLY-GhWS5_NUtb-4">
          <mxGeometry y="134" width="250" height="54" as="geometry" />
        </mxCell>
        <mxCell id="JFTafXgLY-GhWS5_NUtb-9" value="CPU" style="swimlane;fontStyle=1;align=center;verticalAlign=top;childLayout=stackLayout;horizontal=1;startSize=26;horizontalStack=0;resizeParent=1;resizeParentMax=0;resizeLast=0;collapsible=1;marginBottom=0;whiteSpace=wrap;html=1;" vertex="1" parent="WIyWlLk6GJQsqaUBKTNV-1">
          <mxGeometry x="420" y="410" width="220" height="170" as="geometry" />
        </mxCell>
        <mxCell id="JFTafXgLY-GhWS5_NUtb-10" value="- Mather: &amp;lt;MOTHERBOARD&amp;gt;&lt;div&gt;- Micro:&amp;nbsp; &amp;lt;MICROPROCESADOR&amp;gt;&lt;/div&gt;&lt;div&gt;- Memoria: &amp;lt;MEMORIA&amp;gt;&lt;br&gt;&lt;/div&gt;&lt;div&gt;- Fuente&lt;span style=&quot;background-color: initial;&quot;&gt;: &amp;lt;FUENTE&amp;gt;&lt;/span&gt;&lt;/div&gt;" style="text;strokeColor=none;fillColor=none;align=left;verticalAlign=top;spacingLeft=4;spacingRight=4;overflow=hidden;rotatable=0;points=[[0,0.5],[1,0.5]];portConstraint=eastwest;whiteSpace=wrap;html=1;" vertex="1" parent="JFTafXgLY-GhWS5_NUtb-9">
          <mxGeometry y="26" width="220" height="104" as="geometry" />
        </mxCell>
        <mxCell id="JFTafXgLY-GhWS5_NUtb-11" value="" style="line;strokeWidth=1;fillColor=none;align=left;verticalAlign=middle;spacingTop=-1;spacingLeft=3;spacingRight=3;rotatable=0;labelPosition=right;points=[];portConstraint=eastwest;strokeColor=inherit;" vertex="1" parent="JFTafXgLY-GhWS5_NUtb-9">
          <mxGeometry y="130" width="220" height="8" as="geometry" />
        </mxCell>
        <mxCell id="JFTafXgLY-GhWS5_NUtb-12" value="+ Obtener_edad(): int" style="text;strokeColor=none;fillColor=none;align=left;verticalAlign=top;spacingLeft=4;spacingRight=4;overflow=hidden;rotatable=0;points=[[0,0.5],[1,0.5]];portConstraint=eastwest;whiteSpace=wrap;html=1;" vertex="1" parent="JFTafXgLY-GhWS5_NUtb-9">
          <mxGeometry y="138" width="220" height="32" as="geometry" />
        </mxCell>
        <mxCell id="JFTafXgLY-GhWS5_NUtb-13" value="Impresora" style="swimlane;fontStyle=1;align=center;verticalAlign=top;childLayout=stackLayout;horizontal=1;startSize=26;horizontalStack=0;resizeParent=1;resizeParentMax=0;resizeLast=0;collapsible=1;marginBottom=0;whiteSpace=wrap;html=1;" vertex="1" parent="WIyWlLk6GJQsqaUBKTNV-1">
          <mxGeometry x="680" y="410" width="220" height="170" as="geometry" />
        </mxCell>
        <mxCell id="JFTafXgLY-GhWS5_NUtb-14" value="- Tipo: &amp;lt;TIPO&amp;gt;&lt;div&gt;- PPI:&amp;nbsp; Int&lt;/div&gt;&lt;div&gt;- Voltaje: Int&lt;br&gt;&lt;/div&gt;&lt;div&gt;- SD&lt;span style=&quot;background-color: initial;&quot;&gt;: &amp;lt;SISTEMA OPERATIVO&amp;gt;&lt;/span&gt;&lt;/div&gt;" style="text;strokeColor=none;fillColor=none;align=left;verticalAlign=top;spacingLeft=4;spacingRight=4;overflow=hidden;rotatable=0;points=[[0,0.5],[1,0.5]];portConstraint=eastwest;whiteSpace=wrap;html=1;" vertex="1" parent="JFTafXgLY-GhWS5_NUtb-13">
          <mxGeometry y="26" width="220" height="104" as="geometry" />
        </mxCell>
        <mxCell id="JFTafXgLY-GhWS5_NUtb-15" value="" style="line;strokeWidth=1;fillColor=none;align=left;verticalAlign=middle;spacingTop=-1;spacingLeft=3;spacingRight=3;rotatable=0;labelPosition=right;points=[];portConstraint=eastwest;strokeColor=inherit;" vertex="1" parent="JFTafXgLY-GhWS5_NUtb-13">
          <mxGeometry y="130" width="220" height="8" as="geometry" />
        </mxCell>
        <mxCell id="JFTafXgLY-GhWS5_NUtb-16" value="+ Obtener_edad(): int" style="text;strokeColor=none;fillColor=none;align=left;verticalAlign=top;spacingLeft=4;spacingRight=4;overflow=hidden;rotatable=0;points=[[0,0.5],[1,0.5]];portConstraint=eastwest;whiteSpace=wrap;html=1;" vertex="1" parent="JFTafXgLY-GhWS5_NUtb-13">
          <mxGeometry y="138" width="220" height="32" as="geometry" />
        </mxCell>
        <mxCell id="JFTafXgLY-GhWS5_NUtb-17" value="Monitor" style="swimlane;fontStyle=1;align=center;verticalAlign=top;childLayout=stackLayout;horizontal=1;startSize=26;horizontalStack=0;resizeParent=1;resizeParentMax=0;resizeLast=0;collapsible=1;marginBottom=0;whiteSpace=wrap;html=1;" vertex="1" parent="WIyWlLk6GJQsqaUBKTNV-1">
          <mxGeometry x="780" y="71" width="180" height="184" as="geometry" />
        </mxCell>
        <mxCell id="JFTafXgLY-GhWS5_NUtb-18" value="&lt;div&gt;&lt;span style=&quot;background-color: initial;&quot;&gt;- Pulgadas: Float&lt;/span&gt;&lt;/div&gt;&lt;div&gt;&lt;div&gt;&lt;br&gt;&lt;/div&gt;&lt;/div&gt;" style="text;strokeColor=none;fillColor=none;align=left;verticalAlign=top;spacingLeft=4;spacingRight=4;overflow=hidden;rotatable=0;points=[[0,0.5],[1,0.5]];portConstraint=eastwest;whiteSpace=wrap;html=1;" vertex="1" parent="JFTafXgLY-GhWS5_NUtb-17">
          <mxGeometry y="26" width="180" height="124" as="geometry" />
        </mxCell>
        <mxCell id="JFTafXgLY-GhWS5_NUtb-19" value="" style="line;strokeWidth=1;fillColor=none;align=left;verticalAlign=middle;spacingTop=-1;spacingLeft=3;spacingRight=3;rotatable=0;labelPosition=right;points=[];portConstraint=eastwest;strokeColor=inherit;" vertex="1" parent="JFTafXgLY-GhWS5_NUtb-17">
          <mxGeometry y="150" width="180" height="8" as="geometry" />
        </mxCell>
        <mxCell id="JFTafXgLY-GhWS5_NUtb-20" value="+ method(type): type" style="text;strokeColor=none;fillColor=none;align=left;verticalAlign=top;spacingLeft=4;spacingRight=4;overflow=hidden;rotatable=0;points=[[0,0.5],[1,0.5]];portConstraint=eastwest;whiteSpace=wrap;html=1;" vertex="1" parent="JFTafXgLY-GhWS5_NUtb-17">
          <mxGeometry y="158" width="180" height="26" as="geometry" />
        </mxCell>
        <mxCell id="JFTafXgLY-GhWS5_NUtb-24" value="Extends" style="endArrow=block;endSize=16;endFill=0;html=1;rounded=0;exitX=0.464;exitY=-0.012;exitDx=0;exitDy=0;exitPerimeter=0;" edge="1" parent="WIyWlLk6GJQsqaUBKTNV-1" source="JFTafXgLY-GhWS5_NUtb-9" target="s3YrhpVgowpJ8DNU9XVm-7">
          <mxGeometry width="160" relative="1" as="geometry">
            <mxPoint x="500" y="320" as="sourcePoint" />
            <mxPoint x="660" y="320" as="targetPoint" />
            <Array as="points">
              <mxPoint x="550" y="320" />
            </Array>
          </mxGeometry>
        </mxCell>
        <mxCell id="JFTafXgLY-GhWS5_NUtb-25" value="Extends" style="endArrow=block;endSize=16;endFill=0;html=1;rounded=0;entryX=1;entryY=0.792;entryDx=0;entryDy=0;entryPerimeter=0;exitX=0.18;exitY=0.012;exitDx=0;exitDy=0;exitPerimeter=0;" edge="1" parent="WIyWlLk6GJQsqaUBKTNV-1" source="JFTafXgLY-GhWS5_NUtb-13" target="s3YrhpVgowpJ8DNU9XVm-7">
          <mxGeometry width="160" relative="1" as="geometry">
            <mxPoint x="650" y="330" as="sourcePoint" />
            <mxPoint x="810" y="330" as="targetPoint" />
            <mxPoint as="offset" />
          </mxGeometry>
        </mxCell>
        <mxCell id="JFTafXgLY-GhWS5_NUtb-26" value="Extends" style="endArrow=block;endSize=16;endFill=0;html=1;rounded=0;entryX=1.013;entryY=0.747;entryDx=0;entryDy=0;entryPerimeter=0;exitX=-0.002;exitY=0.766;exitDx=0;exitDy=0;exitPerimeter=0;" edge="1" parent="WIyWlLk6GJQsqaUBKTNV-1" source="JFTafXgLY-GhWS5_NUtb-18" target="s3YrhpVgowpJ8DNU9XVm-5">
          <mxGeometry x="-0.0218" y="-1" width="160" relative="1" as="geometry">
            <mxPoint x="620" y="190" as="sourcePoint" />
            <mxPoint x="780" y="190" as="targetPoint" />
            <mxPoint as="offset" />
          </mxGeometry>
        </mxCell>
      </root>
    </mxGraphModel>
  </diagram>
</mxfile>
